<?xml version="1.0" standalone="no"?><!DOCTYPE svg PUBLIC "-//W3C//DTD SVG 1.1//EN" "http://www.w3.org/Graphics/SVG/1.1/DTD/svg11.dtd"><svg t="1600931576076" class="icon" viewBox="0 0 1024 1024" version="1.1" xmlns="http://www.w3.org/2000/svg" p-id="1156" xmlns:xlink="http://www.w3.org/1999/xlink" width="200" height="200"><defs><style type="text/css"></style></defs><path d="M512 128a384 384 0 1 0 0 768 384 384 0 0 0 0-768zM42.666667 512C42.666667 252.8 252.8 42.666667 512 42.666667s469.333333 210.133333 469.333333 469.333333-210.133333 469.333333-469.333333 469.333333S42.666667 771.2 42.666667 512z" fill="#75C82B" p-id="1157"></path><path d="M690.773333 584.192a85.333333 85.333333 0 0 0 0-144.384l-229.290666-144.426667c-56.832-35.797333-130.816 5.077333-130.816 72.192v288.853334c0 67.114667 73.984 107.946667 130.816 72.192l229.248-144.426667zM645.248 512L416 656.384V367.573333L645.290667 512z" fill="#75C82B" p-id="1158"></path></svg>