<?xml version="1.0" encoding="iso-8859-1"?>
<!-- Generator: Adobe Illustrator 19.0.0, SVG Export Plug-In . SVG Version: 6.00 Build 0)  -->
<svg version="1.1" id="Capa_1" xmlns="http://www.w3.org/2000/svg" xmlns:xlink="http://www.w3.org/1999/xlink" x="0px" y="0px"
	 viewBox="0 0 512 512" style="enable-background:new 0 0 512 512;" xml:space="preserve">
<rect x="204.8" y="412.588" style="fill:#ABBACD;" width="102.4" height="62.295"/>
<rect x="204.8" y="412.588" style="fill:#91A4B6;" width="102.4" height="28.209"/>
<path style="fill:#BAC7D9;" d="M494.933,76.801c9.426,0,17.067,7.641,17.067,17.067v307.199c0,9.426-7.641,17.067-17.067,17.067
	H17.067C7.641,418.133,0,410.492,0,401.067V93.868c0-9.426,7.641-17.067,17.067-17.067C17.067,76.801,494.933,76.801,494.933,76.801
	z"/>
<path style="fill:#A5B5CC;" d="M494.933,76.801H472.27c9.426,0,17.067,7.641,17.067,17.067v307.199
	c0,9.426-7.641,17.067-17.067,17.067h22.663c9.426,0,17.067-7.641,17.067-17.067V93.868C512,84.442,504.359,76.801,494.933,76.801z"
	/>
<circle style="fill:#D7DCF2;" cx="256" cy="384" r="12.801"/>
<path style="fill:#474855;" d="M512,349.866V93.868c0-9.426-7.641-17.067-17.067-17.067H17.067C7.641,76.801,0,84.442,0,93.868
	v255.998H512z"/>
<path style="fill:#3C3C47;" d="M494.933,76.801h-22.664c9.426,0,17.067,7.641,17.067,17.067v255.998H512V93.868
	C512,84.442,504.359,76.801,494.933,76.801z"/>
<path style="fill:#FFFFFF;" d="M25.6,108.582v209.503c0,3.414,2.767,6.181,6.181,6.181h448.438c3.414,0,6.181-2.767,6.181-6.181
	V108.582c0-3.414-2.767-6.181-6.181-6.181H31.781C28.367,102.401,25.6,105.168,25.6,108.582z"/>
<path style="fill:#FF5A6A;" d="M486.398,145.066H25.601v-36.484c0-3.414,2.767-6.181,6.181-6.181H480.22
	c3.414,0,6.181,2.767,6.181,6.181L486.398,145.066z"/>
<path style="fill:#FFFFFF;" d="M68.266,131.46H51.201c-4.267,0-7.726-3.459-7.726-7.726c0-4.267,3.459-7.726,7.726-7.726h17.065
	c4.267,0,7.726,3.459,7.726,7.726C75.992,128.001,72.533,131.46,68.266,131.46z"/>
<path style="fill:#BAC7D9;" d="M369.286,503.468h-226.57c-3.414,0-6.181-2.767-6.181-6.181v-21.771c0-3.414,2.767-6.181,6.181-6.181
	h226.571c3.414,0,6.181,2.767,6.181,6.181v21.771C375.467,500.7,372.7,503.468,369.286,503.468z"/>
<path style="fill:#A5B5CC;" d="M369.286,469.334h-22.664c3.414,0,6.181,2.767,6.181,6.181v21.771c0,3.414-2.767,6.181-6.181,6.181
	h22.664c3.414,0,6.181-2.767,6.181-6.181v-21.771C375.467,472.101,372.7,469.334,369.286,469.334z"/>
<path style="fill:#474855;" d="M386.352,281.601H125.648c-3.414,0-6.181-2.767-6.181-6.181V14.715c0-3.414,2.767-6.181,6.181-6.181
	h260.704c3.414,0,6.181,2.767,6.181,6.181V275.42C392.533,278.834,389.766,281.601,386.352,281.601z"/>
<path style="fill:#3C3C47;" d="M386.352,8.532h-16.483v273.067h16.483c3.414,0,6.181-2.767,6.181-6.181V14.713
	C392.533,11.3,389.766,8.532,386.352,8.532z"/>
<g>
	<path style="fill:#FFFFFF;" d="M164.487,59.734h-13.239c-3.414,0-6.181-2.767-6.181-6.181V40.315c0-3.414,2.767-6.181,6.181-6.181
		h13.239c3.414,0,6.181,2.767,6.181,6.181v13.239C170.668,56.967,167.9,59.734,164.487,59.734z"/>
	<path style="fill:#FFFFFF;" d="M164.487,125.157h-13.239c-3.414,0-6.181-2.767-6.181-6.181v-13.239
		c0-3.414,2.767-6.181,6.181-6.181h13.239c3.414,0,6.181,2.767,6.181,6.181v13.239C170.668,122.389,167.9,125.157,164.487,125.157z"
		/>
	<path style="fill:#FFFFFF;" d="M164.487,190.578h-13.239c-3.414,0-6.181-2.767-6.181-6.181v-13.239
		c0-3.414,2.767-6.181,6.181-6.181h13.239c3.414,0,6.181,2.767,6.181,6.181v13.239C170.668,187.811,167.9,190.578,164.487,190.578z"
		/>
	<path style="fill:#FFFFFF;" d="M164.487,256h-13.239c-3.414,0-6.181-2.767-6.181-6.181v-13.238c0-3.414,2.767-6.181,6.181-6.181
		h13.239c3.414,0,6.181,2.767,6.181,6.181v13.238C170.668,253.233,167.9,256,164.487,256z"/>
	<path style="fill:#FFFFFF;" d="M360.753,59.734h-13.239c-3.414,0-6.181-2.767-6.181-6.181V40.315c0-3.414,2.767-6.181,6.181-6.181
		h13.239c3.414,0,6.181,2.767,6.181,6.181v13.239C366.934,56.967,364.166,59.734,360.753,59.734z"/>
	<path style="fill:#FFFFFF;" d="M360.753,125.157h-13.239c-3.414,0-6.181-2.767-6.181-6.181v-13.239
		c0-3.414,2.767-6.181,6.181-6.181h13.239c3.414,0,6.181,2.767,6.181,6.181v13.239C366.934,122.389,364.166,125.157,360.753,125.157
		z"/>
	<path style="fill:#FFFFFF;" d="M360.753,190.578h-13.239c-3.414,0-6.181-2.767-6.181-6.181v-13.239
		c0-3.414,2.767-6.181,6.181-6.181h13.239c3.414,0,6.181,2.767,6.181,6.181v13.239C366.934,187.811,364.166,190.578,360.753,190.578
		z"/>
	<path style="fill:#FFFFFF;" d="M360.753,256h-13.239c-3.414,0-6.181-2.767-6.181-6.181v-13.238c0-3.414,2.767-6.181,6.181-6.181
		h13.239c3.414,0,6.181,2.767,6.181,6.181v13.238C366.934,253.233,364.166,256,360.753,256z"/>
</g>
<path style="fill:#ABECFD;" d="M221.867,169.294V121.03c0-4.617,4.879-7.605,8.991-5.505l48.264,24.634
	c4.537,2.316,4.483,8.817-0.092,11.057l-48.264,23.63C226.658,176.855,221.867,173.866,221.867,169.294z"/>
<path style="fill:#8DDDF2;" d="M221.867,169.294c0,4.572,4.792,7.562,8.899,5.552l48.264-23.63c2.514-1.23,3.653-3.747,3.426-6.149
	h-60.589V169.294z"/>
<g>
</g>
<g>
</g>
<g>
</g>
<g>
</g>
<g>
</g>
<g>
</g>
<g>
</g>
<g>
</g>
<g>
</g>
<g>
</g>
<g>
</g>
<g>
</g>
<g>
</g>
<g>
</g>
<g>
</g>
</svg>
